<?xml version="1.0" standalone="no"?>
<!DOCTYPE svg PUBLIC "-//W3C//DTD SVG 20010904//EN"
 "http://www.w3.org/TR/2001/REC-SVG-20010904/DTD/svg10.dtd">
<svg version="1.0" xmlns="http://www.w3.org/2000/svg"
 width="3508.000000pt" height="2482.000000pt" viewBox="0 0 3508.000000 2482.000000"
 preserveAspectRatio="xMidYMid meet">

<g transform="translate(0.000000,2482.000000) scale(0.100000,-0.100000)"
fill="#000000" stroke="none">
<path d="M32508 22493 c155 -2 409 -2 565 0 155 1 28 2 -283 2 -311 0 -438 -1
-282 -2z"/>
<path d="M17985 17214 c-649 -369 -1280 -730 -1795 -1029 -272 -158 -524 -302
-558 -321 -54 -29 -495 -282 -1513 -867 l-177 -102 -6 -90 c-3 -49 -9 -407
-12 -794 l-7 -704 489 6 c269 4 654 7 857 7 l367 0 0 305 0 305 38 23 c106 68
2627 1522 2656 1533 8 3 112 -52 243 -129 125 -74 293 -172 373 -219 80 -47
574 -338 1099 -647 524 -308 957 -561 962 -561 5 0 9 193 9 453 1 530 10 1507
15 1523 2 6 -2 11 -8 11 -7 0 -93 48 -192 105 -99 57 -304 175 -455 262 -151
87 -297 173 -325 191 -27 18 -223 132 -435 253 -785 447 -1218 692 -1232 696
-7 3 -184 -92 -393 -210z"/>
<path d="M21040 15906 c0 -3 9 -10 20 -16 11 -6 20 -8 20 -6 0 3 -9 10 -20 16
-11 6 -20 8 -20 6z"/>
<path d="M22550 14789 c-107 -61 -249 -141 -315 -178 -228 -130 -955 -540
-1020 -576 -27 -15 -85 -47 -127 -72 l-78 -45 0 -299 0 -299 818 -1 c745 -1
885 0 888 4 2 4 34 1571 31 1573 -1 1 -90 -47 -197 -107z"/>
<path d="M18296 13059 c-290 -31 -497 -109 -700 -266 -151 -116 -261 -270
-312 -438 -15 -46 -19 -92 -19 -200 0 -124 3 -145 23 -189 59 -130 146 -193
365 -264 149 -49 194 -60 582 -142 384 -81 443 -116 386 -229 -32 -62 -89
-106 -177 -134 -117 -39 -181 -47 -354 -47 -177 0 -247 13 -321 61 -70 44 -83
80 -75 196 l7 93 -344 0 -345 0 -6 -27 c-3 -16 -9 -91 -12 -169 -6 -128 -5
-146 15 -206 60 -179 229 -338 433 -406 143 -47 251 -64 464 -69 385 -11 677
44 923 173 270 142 404 290 492 544 31 89 38 263 14 345 -44 153 -168 251
-421 334 -104 34 -348 90 -703 161 -198 40 -268 77 -255 135 30 138 170 211
429 222 153 6 253 -11 325 -55 63 -38 80 -77 80 -180 l0 -82 338 2 337 3 12
55 c6 30 12 93 12 140 2 156 -43 271 -147 381 -148 158 -281 220 -545 254
-125 16 -368 18 -501 4z"/>
<path d="M13892 12883 c-23 -87 -118 -455 -212 -818 -94 -363 -180 -686 -192
-718 -51 -141 -112 -181 -275 -180 -169 1 -189 19 -180 160 3 48 19 146 37
216 17 71 30 131 28 133 -3 2 -153 1 -335 -3 l-331 -6 -21 -71 c-11 -39 -22
-80 -24 -91 -2 -11 -9 -39 -16 -62 -19 -69 -24 -122 -24 -248 0 -162 10 -200
84 -305 64 -91 182 -172 284 -194 44 -9 74 -16 125 -29 25 -6 142 -10 265 -11
309 0 440 25 640 124 233 116 383 306 464 590 27 95 417 1594 428 1648 l5 22
-354 0 -355 0 -41 -157z"/>
<path d="M16456 12827 c-27 -105 -74 -293 -106 -417 l-58 -225 -428 -3 c-235
-1 -431 1 -435 5 -4 5 40 186 97 403 57 217 103 401 104 408 0 9 -77 12 -354
12 l-355 0 -15 -52 c-8 -29 -56 -213 -106 -408 -50 -195 -139 -537 -197 -760
-57 -223 -143 -556 -189 -740 -47 -184 -87 -343 -90 -353 -5 -16 15 -17 352
-15 l358 3 27 105 c14 58 68 267 118 465 50 198 95 369 99 379 8 19 22 19 438
17 236 -1 430 -4 431 -5 1 -1 -51 -213 -117 -472 -66 -258 -120 -475 -120
-482 0 -10 75 -12 357 -10 l356 3 114 445 c62 245 152 594 200 775 207 794
283 1091 283 1103 0 9 -78 12 -357 12 l-358 -1 -49 -192z"/>
<path d="M21000 12237 c0 -244 -3 -667 -7 -940 l-6 -497 -63 -37 c-35 -20 -61
-40 -58 -45 3 -4 -2 -5 -10 -2 -9 3 -16 1 -16 -5 0 -6 -3 -10 -8 -9 -14 5
-321 -175 -315 -185 4 -6 1 -7 -6 -3 -7 5 -30 -4 -54 -20 -23 -16 -44 -29 -47
-29 -3 0 -40 -21 -84 -45 -43 -25 -94 -54 -115 -65 -343 -193 -660 -379 -655
-386 3 -5 -1 -7 -8 -4 -7 3 -112 -52 -233 -121 -121 -69 -238 -136 -260 -148
-154 -85 -321 -182 -327 -190 -3 -5 -13 -11 -20 -12 -25 -3 -128 -65 -128 -77
0 -6 -3 -7 -7 -4 -7 7 -114 -49 -124 -65 -3 -5 -9 -9 -13 -8 -8 1 -107 -52
-104 -56 3 -2 277 -162 328 -191 19 -11 141 -82 270 -158 571 -334 859 -501
950 -553 19 -10 51 -29 71 -41 l35 -21 460 261 c252 143 458 265 456 270 -1 6
2 8 7 4 18 -11 164 71 1276 719 l490 285 8 323 c4 178 10 812 15 1411 l7 1087
-852 0 -853 0 0 -443z m-952 -2001 c-10 -7 -14 -17 -10 -21 4 -5 1 -5 -7 0
-12 7 -11 10 4 22 24 17 36 17 13 -1z"/>
<path d="M16380 9422 l0 -987 113 -67 c153 -90 1037 -594 1442 -822 l330 -186
7 57 c4 32 14 378 23 768 8 391 18 799 22 908 4 130 3 197 -4 197 -6 0 -396
227 -867 504 -471 277 -856 501 -856 498 0 -4 -4 -2 -8 4 -10 14 -177 114
-191 114 -8 0 -11 -270 -11 -988z"/>
</g>
</svg>
